nColumns=19
nRows=55
DataType=double
version=3
OpenSimVersion=4.1
endheader
time	ground_force_calcn_r_vx	ground_force_calcn_r_vy	ground_force_calcn_r_vz	ground_force_calcn_r_px	ground_force_calcn_r_py	ground_force_calcn_r_pz	ground_force_calcn_r_mx	ground_force_calcn_r_my	ground_force_calcn_r_mz	ground_force_calcn_l_vx	ground_force_calcn_l_vy	ground_force_calcn_l_vz	ground_force_calcn_l_px	ground_force_calcn_l_py	ground_force_calcn_l_pz	ground_force_calcn_l_mx	ground_force_calcn_l_my	ground_force_calcn_l_mz
1.39	0	0	0	0	0	0	0	0	0	0	0	0	0	0	0	0	0	0
1.4	0	0	0	0	0	0	0	0	0	0	0	0	0	0	0	0	0	0
1.41	0	0	0	0	0	0	0	0	0	0	0	0	0	0	0	0	0	0
1.42	-2.29691	13.5605	-0.857995	-0.0027753	0	-0.00066927	2.58078e-19	-1.52363e-18	9.64031e-20	0	0	0	0	0	0	0	0	0
1.43	0.804532	55.0604	-4.48665	1.15088	0	-0.327975	0.00471647	0.322785	-0.0263024	0	0	0	0	0	0	0	0	0
1.44	-0.397913	209.754	-19.3003	1.05228	0	-0.293136	0.00345726	-1.82245	0.16769	0	0	0	0	0	0	0	0	0
1.45	-14.1737	589.563	-33.0272	1.05945	0	-0.297192	-0.0158078	0.657533	-0.0368349	0	0	0	0	0	0	0	0	0
1.46	-68.4956	1109.5	9.19699	1.05882	0	-0.298682	-0.439493	7.11899	0.0590113	0	0	0	0	0	0	0	0	0
1.47	-165.453	1407.18	129.784	1.05484	0	-0.299867	-1.40388	11.94	1.10122	0	0	0	0	0	0	0	0	0
1.48	-249.367	1374.53	193.923	1.04549	0	-0.300476	-1.99347	10.9881	1.55024	0	0	0	0	0	0	0	0	0
1.49	-285.808	1287.3	86.9871	1.0252	0	-0.299111	-1.34157	6.04253	0.408313	0	0	0	0	0	0	0	0	0
1.5	-274.648	1314.54	-54.8288	0.989234	0	-0.29531	-0.302872	1.44963	-0.0604633	0	0	0	0	0	0	0	0	0
1.51	-242.547	1420.4	-60.7602	0.946662	0	-0.290643	-0.0470814	0.275717	-0.0117943	0	0	0	0	0	0	0	0	0
1.52	-201.408	1510.31	2.49583	0.910251	0	-0.286813	-0.203308	1.52456	0.00251937	0	0	0	0	0	0	0	0	0
1.53	-151.824	1535.06	-5.70772	0.882084	0	-0.284414	-0.222554	2.25019	-0.00836675	0	0	0	0	0	0	0	0	0
1.54	-112.194	1502.28	-53.8421	0.857203	0	-0.282893	-0.0873054	1.16902	-0.041898	0	0	0	0	0	0	0	0	0
1.55	-87.5571	1451.46	-51.1229	0.829431	0	-0.281606	0.0279937	-0.46406	0.016345	0	0	0	0	0	0	0	0	0
1.56	-58.8621	1399.52	-21.1259	0.79407	0	-0.280625	0.0327614	-0.778941	0.0117582	0	0	0	0	0	0	0	0	0
1.57	-8.42237	1331.36	-12.8027	0.749462	0	-0.280445	-0.00426016	0.673421	-0.00647579	0	0	0	0	0	0	0	0	0
1.58	61.7295	1229.51	-6.30215	0.698187	0	-0.281064	0.12539	2.49748	-0.0128015	0	0	0	0	0	0	0	0	0
1.59	140.659	1095.17	20.0215	0.645727	0	-0.281946	0.359271	2.79728	0.0511389	0	0	0	0	0	0	0	0	0
1.6	198.468	935.504	48.1118	0.597722	0	-0.282743	0.231346	1.09048	0.056082	0	0	0	0	0	0	0	0	0
1.61	206.787	745.154	63.5327	0.556901	0	-0.283264	-0.337068	-1.21462	-0.10356	0	0	0	0	0	0	0	0	0
1.62	169.664	527.863	62.3684	0.520978	0	-0.282967	-0.747308	-2.32505	-0.27471	0	0	0	0	0	0	0	0	0
1.63	116.596	316.413	40.995	0.479691	0	-0.280518	-0.538518	-1.46141	-0.189343	0	0	0	0	0	0	0	0	0
1.64	71.5246	152.994	14.7525	0.395299	0	-0.268474	0.395472	0.845928	0.0815692	0	0	0	0	0	0	0	0	0
1.65	37.1264	59.18	3.03101	-0.331803	0	-0.145739	1.92202	3.06372	0.156914	0	0	0	0	0	0	0	0	0
1.66	13.1365	23.261	0.889012	-0.00277538	0	-0.000672137	1.17359e-18	2.0781e-18	7.94228e-20	0	0	0	0	0	0	0	0	0
1.67	-0.0110929	13.9767	-1.97419	-0.00277538	0	-0.000672249	-0	0	-0	0	0	0	0	0	0	0	0	0
1.68	-3.91517	10.0107	-0.514583	-0.00277539	0	-0.000672361	-0	0	-0	0	0	0	0	0	0	0	0	0
1.69	0	0	0	0	0	0	0	0	0	0	0	0	0	0	0	0	0	0
1.7	0	0	0	0	0	0	0	0	0	0	0	0	0	0	0	0	0	0
1.71	0	0	0	0	0	0	0	0	0	0	0	0	0	0	0	0	0	0
1.72	0	0	0	0	0	0	0	0	0	0	0	0	0	0	0	0	0	0
1.73	0	0	0	0	0	0	0	0	0	0.180695	18.3578	-0.139767	-0.00277561	0	-0.000671179	6.39533e-21	6.49734e-19	-4.94674e-21
1.74	0	0	0	0	0	0	0	0	0	1.91168	60.6165	-7.22804	1.14263	0	-0.285074	-0.0176205	-0.558718	0.0666227
1.75	0	0	0	0	0	0	0	0	0	6.5724	209.231	-22.2205	1.03248	0	-0.319962	0.0112484	0.358092	-0.0380296
1.76	0	0	0	0	0	0	0	0	0	-3.35254	551.045	-42.4327	1.03606	0	-0.314787	-0.00852715	1.40158	-0.107927
1.77	0	0	0	0	0	0	0	0	0	-64.2486	1000.38	-51.676	1.03343	0	-0.312872	-0.0832329	1.29597	-0.0669454
1.78	0	0	0	0	0	0	0	0	0	-158	1278.82	-46.9015	1.0277	0	-0.312663	0.014609	-0.118243	0.00433663
1.79	0	0	0	0	0	0	0	0	0	-213.33	1287.72	-71.1716	1.01634	0	-0.314571	0.296787	-1.79148	0.0990146
1.8	0	0	0	0	0	0	0	0	0	-225.997	1215.2	-111.938	0.994588	0	-0.319075	0.497871	-2.67709	0.246599
1.81	0	0	0	0	0	0	0	0	0	-227.971	1209.97	-66.3697	0.959821	0	-0.325203	0.540179	-2.86704	0.157263
1.82	0	0	0	0	0	0	0	0	0	-211.217	1279.27	41.0945	0.917792	0	-0.330549	0.516921	-3.13082	-0.100572
1.83	0	0	0	0	0	0	0	0	0	-161.172	1369.25	72.7723	0.878843	0	-0.333959	0.441814	-3.75345	-0.199487
1.84	0	0	0	0	0	0	0	0	0	-102.509	1429.22	31.8708	0.846777	0	-0.336062	0.297859	-4.15287	-0.0926066
1.85	0	0	0	0	0	0	0	0	0	-62.8603	1443.25	21.5622	0.818862	0	-0.33754	0.164607	-3.77934	-0.0564632
1.86	0	0	0	0	0	0	0	0	0	-32.6912	1421.47	43.8217	0.790973	0	-0.338703	0.0680904	-2.96069	-0.0912736
1.87	0	0	0	0	0	0	0	0	0	1.80974	1371.5	40.1844	0.76045	0	-0.339509	-0.0033557	-2.54309	-0.0745115
1.88	0	0	0	0	0	0	0	0	0	40.2344	1297.03	17.7081	0.726793	0	-0.339565	-0.0961793	-3.10051	-0.0423307
1.89	0	0	0	0	0	0	0	0	0	78.1792	1199.2	1.99468	0.690657	0	-0.338563	-0.285041	-4.37228	-0.00727258
1.9	0	0	0	0	0	0	0	0	0	114.344	1068.26	-11.8633	0.65226	0	-0.336748	-0.558915	-5.2217	0.0579883
1.91	0	0	0	0	0	0	0	0	0	142.903	888.426	-27.5875	0.61056	0	-0.334732	-0.697473	-4.33618	0.134647
1.92	0	0	0	0	0	0	0	0	0	152.952	662.711	-39.7298	0.563651	0	-0.332869	-0.333432	-1.4447	0.0866103
1.93	0	0	0	0	0	0	0	0	0	133.569	435.619	-46.4788	0.509577	0	-0.330675	0.628636	2.05023	-0.218751
